<?xml version="1.0" encoding="UTF-8"?>
<svg version="1.1" xmlns="http://www.w3.org/2000/svg" width="3403" height="802">
<path d="M0 0 C57.09 0 114.18 0 173 0 C176.22295538 6.44591077 179.21302466 12.6830645 181.83251953 19.35131836 C182.18455696 20.23671547 182.53659439 21.12211258 182.89929962 22.0343399 C184.0645785 24.96789667 185.22363039 27.90387315 186.3828125 30.83984375 C187.22053633 32.95159628 188.05871356 35.06316899 188.89730835 37.17457581 C190.69794837 41.71019035 192.49607863 46.24678825 194.29223633 50.78417969 C198.90408594 62.43327988 203.53154079 74.07618785 208.158391 85.71933603 C208.91764561 87.63011117 209.67673389 89.54095231 210.43578339 91.45180893 C220.6110199 117.06587451 230.88023468 142.64177061 241.1746254 168.20816803 C257.52450579 208.81635446 273.76922988 249.46536934 289.94642353 290.14263725 C292.14645655 295.67456531 294.34661147 301.20644487 296.546875 306.73828125 C296.97847113 307.82343395 297.41006725 308.90858665 297.85474205 310.02662277 C307.76719272 334.94713321 317.72262949 359.85041206 327.6875 384.75 C328.08404156 385.74089252 328.48058311 386.73178505 328.88914108 387.75270462 C333.59127355 399.50239866 338.29474466 411.25155619 343 423 C344.56268029 420.65597957 345.56412269 418.8419273 346.59033203 416.28366089 C346.89408752 415.53122888 347.19784302 414.77879686 347.51080322 414.00356388 C347.83981628 413.17851573 348.16882935 412.35346758 348.5078125 411.50341797 C348.86099548 410.62562652 349.21417847 409.74783506 349.57806396 408.84344387 C350.76365854 405.89433188 351.94431853 402.94326955 353.125 399.9921875 C353.96993055 397.88743366 354.81515222 395.78279667 355.66064453 393.67826843 C357.96176955 387.94785693 360.25853245 382.21570609 362.55444336 376.48320389 C364.49420937 371.6414211 366.43640837 366.80061596 368.37864685 361.95982456 C374.19031262 347.47494413 379.99508834 332.98730917 385.79762745 318.49877065 C387.90634087 313.23356175 390.01579498 307.96864981 392.1253767 302.70378876 C410.68144729 256.39330018 429.18779827 210.06323932 447.62750912 163.70629501 C462.95336556 125.17770561 478.31044271 86.66193366 493.7600441 48.18276978 C495.05563905 44.95459512 496.34995144 41.72590906 497.64389038 38.49707031 C499.6498105 33.49209132 501.65915109 28.48850008 503.67134476 23.48604012 C504.40680353 21.65619665 505.14112759 19.82589666 505.8742485 17.99511528 C506.87138092 15.50577792 507.87272988 13.01817972 508.87524414 10.53100586 C509.16528666 9.80416847 509.45532919 9.07733109 509.75416088 8.32846832 C510.9728194 5.31666207 512.18990219 2.71514671 514 0 C516.94790077 -0.36914349 516.94790077 -0.36914349 520.80825806 -0.36076355 C521.51642146 -0.36332682 522.22458487 -0.3658901 522.95420778 -0.36853105 C525.33900324 -0.37349216 527.72317255 -0.35693843 530.10791016 -0.34057617 C531.81261683 -0.3397304 533.5173246 -0.34020407 535.22203064 -0.34190369 C539.86028905 -0.34276701 544.49831633 -0.32508685 549.13652086 -0.30418181 C553.97986725 -0.28547106 558.82321851 -0.28366901 563.66659546 -0.28010559 C572.84285728 -0.27076862 582.01901231 -0.24613254 591.19522703 -0.21605712 C601.64004151 -0.18256445 612.084861 -0.16604004 622.52971578 -0.15097082 C644.0198702 -0.11958438 665.50992838 -0.06679185 687 0 C693.3341435 49.60160023 699.19180516 99.26040513 705.08973978 148.91532171 C706.59248203 161.56628489 708.0972778 174.21700362 709.60215311 186.86771321 C712.31189432 209.64749667 715.02021089 232.42744918 717.72753906 255.20751953 C720.30019744 276.85439887 722.8733233 298.50122251 725.44726562 320.14794922 C725.52564155 320.80709111 725.60401748 321.46623299 725.68476844 322.14534888 C727.49653017 337.38226748 729.30845482 352.6191667 731.12052536 367.85604858 C731.74675688 373.1218053 732.37298229 378.38756274 732.99920654 383.65332031 C733.15366937 384.95213835 733.30813219 386.25095639 733.46727571 387.58913255 C735.4783667 404.49985155 737.48845601 421.41068926 739.49758124 438.32164192 C741.01000025 451.05171882 742.52289617 463.78173902 744.03613281 476.51171875 C744.18351365 477.75157422 744.33089449 478.99142968 744.48274142 480.26885653 C748.41694046 513.36355756 752.3678901 546.45619773 756.34311814 579.54599607 C757.24289117 587.03576879 758.14180004 594.52564473 759.04009819 602.01559448 C759.28795914 604.08207134 759.5358204 606.14854816 759.78368199 608.21502495 C760.1481704 611.25388407 760.51264485 614.29274487 760.87706755 617.33161187 C762.2613444 628.87417139 763.64929104 640.41627475 765.04385856 651.95759565 C765.88942388 658.95752179 766.73096157 665.95792426 767.56923756 672.95872706 C768.13490595 677.68119177 768.70531354 682.4030472 769.27973247 687.12445509 C769.62426545 689.96676962 769.96385937 692.80965755 770.30198722 695.65274048 C770.52863599 697.54641378 770.76111305 699.43938675 770.99385226 701.33232117 C771.12802188 702.46936493 771.2621915 703.60640869 771.40042686 704.77790833 C771.51713529 705.74576673 771.63384372 706.71362513 771.75408876 707.71081257 C772.08440573 712.12896944 772 716.56951251 772 721 C714.91 721 657.82 721 599 721 C593.46606392 677.40283339 593.46606392 677.40283339 591.02124023 658.13378906 C590.45181927 653.6458732 589.88239278 649.15795803 589.31295776 644.67004395 C589.16907649 643.53606509 589.02519521 642.40208623 588.8769539 641.23374438 C587.8575903 633.20002937 586.8379264 625.16635251 585.81814575 617.13269043 C579.39799795 566.55472516 572.98939961 515.97536365 566.6292057 465.3898201 C565.75169503 458.41088885 564.87350476 451.43204324 563.99516296 444.45321655 C563.56509649 441.03591605 563.1350362 437.61861476 562.70497763 434.20131326 C562.42187752 431.95178682 562.13876783 429.70226158 561.8556484 427.45273757 C560.1898886 414.2167787 558.52699937 400.98046562 556.86844087 387.7436024 C555.82976302 379.45556729 554.78811306 371.16790922 553.74412608 362.88054121 C553.14183703 358.09844118 552.54105158 353.31616375 551.94407272 348.53339767 C551.39908652 344.16717755 550.85025003 339.80146012 550.29823577 335.43612313 C550.09847089 333.85062141 549.90019083 332.26493182 549.70347989 330.6790483 C549.43771195 328.53805794 549.16675602 326.39778929 548.89439392 324.25762939 C548.66989264 322.46821867 548.66989264 322.46821867 548.44085598 320.64265823 C548.27695964 318.08325481 548.27695964 318.08325481 547 317 C546.57136154 318.15556396 546.57136154 318.15556396 546.13406372 319.33447266 C532.66510308 355.64306066 519.17867208 391.94448508 505.55615234 428.19580078 C500.45566616 441.77056534 495.36298099 455.34826037 490.27018356 468.92591095 C489.67333096 470.51713976 489.07646054 472.10836189 488.4795723 473.69957733 C481.33092454 492.75692276 474.19279605 511.81791563 467.10922241 530.89956665 C460.05182666 549.90667993 452.92206768 568.88661374 445.79848099 587.86898804 C438.15487941 608.23738318 430.5255628 628.6108324 422.9375 649 C413.99491507 673.01365463 404.99743411 697.00684236 396 721 C361.35 721 326.7 721 291 721 C275.98938664 681.74147274 275.98938664 681.74147274 268.63085938 662.07421875 C268.09596304 660.64501363 267.56105029 659.21581465 267.02612305 657.78662109 C266.75635651 657.06575317 266.48658997 656.34488525 266.20864868 655.60217285 C264.76043989 651.73314339 263.31082351 647.86464134 261.86132812 643.99609375 C259.74377578 638.34428536 257.62657248 632.69234649 255.50985336 627.04022598 C251.74089732 616.97637856 247.96900389 606.91363517 244.1953125 596.8515625 C243.91850521 596.11348736 243.64169792 595.37541222 243.35650253 594.61497116 C241.9621774 590.89720864 240.56780083 587.17946542 239.17340088 583.46173096 C236.646851 576.72539457 234.12076083 569.9888858 231.5946312 563.25239182 C230.18810584 559.50158765 228.78155147 555.75079437 227.375 552 C226.81249986 550.50000005 226.24999986 549.00000005 225.6875 547.5 C225.4090625 546.7575 225.130625 546.015 224.84375 545.25 C215 519 205.15625 492.75 195.3125 466.5 C195.03405526 465.7574808 194.75561052 465.01496161 194.46872807 464.24994183 C193.9063009 462.75013584 193.34387402 461.25032976 192.78144741 459.75052357 C191.3740853 455.99755423 189.96671833 452.24458672 188.55934143 448.49162292 C186.04136628 441.77708219 183.52342253 435.0625297 181.00566578 428.34790707 C179.61708294 424.64468927 178.2284709 420.94148243 176.83984375 417.23828125 C176.42637853 416.13564658 176.42637853 416.13564658 176.00456047 415.01073647 C172.12016474 404.65194992 168.23438364 394.29368385 164.34768677 383.9357605 C162.15764759 378.09935768 159.96796805 372.26281994 157.778368 366.42625237 C155.99585444 361.674911 154.21286329 356.92374922 152.42950535 352.17272472 C151.32714779 349.23559023 150.22525575 346.29828126 149.12348747 343.36092567 C148.61640768 342.00931835 148.10913856 340.65778205 147.60165596 339.30632591 C146.90196773 337.44293773 146.2030469 335.57926145 145.50415039 333.71557617 C144.92015221 332.15935799 144.92015221 332.15935799 144.32435608 330.57170105 C142.52644367 325.7228498 140.76297782 320.86164381 139 316 C134.44490314 348.57524492 130.43430273 381.22005882 126.38175748 413.86063188 C125.36225799 422.0712157 124.34031762 430.28149525 123.31825344 438.49176015 C121.48635013 453.2078678 119.65604551 467.92417379 117.8269043 482.640625 C116.07316411 496.75038668 114.31907483 510.86010483 112.56420898 524.96972656 C112.4027055 526.26826529 112.4027055 526.26826529 112.23793932 527.59303711 C111.05161036 537.13133512 109.86506982 546.66960679 108.67823505 556.20784187 C108.57259008 557.05687982 108.46694511 557.90591778 108.35809878 558.78068415 C107.93457993 562.18434755 107.51105648 565.58801037 107.08750466 568.99166967 C105.8705035 578.77149605 104.65409107 588.55139512 103.43893752 598.33145125 C102.67180748 604.50542793 101.90409196 610.67933164 101.13599297 616.85318784 C100.69911834 620.36491037 100.26256137 623.87667142 99.82661819 627.38850975 C95.95173994 658.6009684 91.96212021 689.79830338 88 721 C30.91 721 -26.18 721 -85 721 C-85 715.1688618 -84.89005741 709.76968161 -84.1852293 704.04593086 C-84.05300701 702.91927008 -84.05300701 702.91927008 -83.91811356 701.76984847 C-83.62298529 699.26612171 -83.32036554 696.76336004 -83.01774597 694.26052856 C-82.80142451 692.43881639 -82.5855676 690.617049 -82.37013322 688.7952317 C-81.77711465 683.79188775 -81.17751681 678.789351 -80.57684386 673.78692102 C-79.92831908 668.37618988 -79.28591612 662.96473156 -78.64276123 657.55335999 C-77.52165865 648.12779144 -76.39666675 638.70269355 -75.26909447 629.27789688 C-73.60928033 615.40419989 -71.95552143 601.529786 -70.30310515 587.65520619 C-67.58289599 564.8161947 -64.85800109 541.97774549 -62.13012695 519.13964844 C-59.54785627 497.52044336 -56.9673827 475.90102563 -54.38989258 454.28125 C-54.15703951 452.32810518 -54.15703951 452.32810518 -53.91948234 450.33550289 C-52.98090555 442.46267053 -52.04240904 434.5898286 -51.10393009 426.71698457 C-49.69247584 414.87655388 -48.28085142 403.03614349 -46.86917114 391.19573975 C-46.71389069 389.89331698 -46.55861024 388.59089422 -46.39862432 387.2490041 C-44.20362612 368.83869815 -42.00738358 350.428541 -39.81016691 332.0184997 C-33.47950984 278.97501024 -27.15572306 225.9307247 -20.85335065 172.8838678 C-20.20972507 167.46652598 -19.565999 162.04919609 -18.92224225 156.63186985 C-16.09553811 132.84465692 -13.26903127 109.05742099 -10.44668905 85.26969007 C-9.33401341 75.89212561 -8.22039205 66.51467377 -7.10603537 57.13730893 C-6.34273358 50.7136059 -5.58061763 44.28976378 -4.8194538 37.86580709 C-4.35875396 33.98017246 -3.89688524 30.09467747 -3.43466453 26.20922349 C-3.22321523 24.42976146 -3.01224994 22.65024184 -2.80181172 20.87065996 C-2.51655845 18.45895469 -2.22956958 16.04746207 -1.94214344 13.63601494 C-1.86059691 12.94294809 -1.77905039 12.24988124 -1.69503275 11.53581236 C-1.2311189 7.66172931 -0.64239338 3.85436029 0 0 Z " fill="#22371A" transform="translate(108,56)"/>
<path d="M0 0 C360.2391198 0 360.2391198 0 426 23 C426.89444824 23.31018066 427.78889648 23.62036133 428.71044922 23.93994141 C443.66137157 29.19011674 457.84661238 35.90314467 472 43 C472.74507812 43.37125 473.49015625 43.7425 474.2578125 44.125 C496.92202217 55.50154446 517.97696425 70.2836091 537 87 C537.68707031 87.5878125 538.37414063 88.175625 539.08203125 88.78125 C547.90353664 96.35845884 556.93354919 104.12692384 564.38671875 113.078125 C566.22706108 115.27049408 568.17434619 117.34274383 570.125 119.4375 C634.53215475 191.15868758 657.44165254 291.85981702 652.48632812 386.00317383 C648.22040285 461.5675821 622.54940969 538.619589 572 596 C571.36449219 596.73476563 570.72898437 597.46953125 570.07421875 598.2265625 C568.39605826 600.16319829 566.70128116 602.08365847 565 604 C564.31550781 604.77730469 563.63101563 605.55460938 562.92578125 606.35546875 C555.12704251 615.13415372 546.95743697 623.4049704 538 631 C537.05640625 631.82113281 536.1128125 632.64226563 535.140625 633.48828125 C390.6781774 758.5466678 170.06866033 721 0 721 C0 483.07 0 245.14 0 0 Z M173 156 C173 290.97 173 425.94 173 565 C303.60606485 570.74961812 303.60606485 570.74961812 409 515 C409.56235352 514.49936035 410.12470703 513.9987207 410.70410156 513.48291016 C412.43555257 511.93450935 414.15742782 510.37627456 415.875 508.8125 C416.38643555 508.34972656 416.89787109 507.88695312 417.42480469 507.41015625 C432.25768198 493.70346107 444.06430051 476.45809749 454 459 C454.37350586 458.3493457 454.74701172 457.69869141 455.13183594 457.02832031 C481.01673657 411.55991115 486.3103196 356.33442698 473 306 C468.72125761 291.70066409 463.11679004 278.10344604 456 265 C455.52304688 264.05898438 455.04609375 263.11796875 454.5546875 262.1484375 C431.2142578 216.93469082 387.4055109 179.96824912 339.1875 164.1875 C286.40036779 147.70725106 224.80453462 156 173 156 Z " fill="#22371A" transform="translate(1562,56)"/>
<path d="M0 0 C153.12 0 306.24 0 464 0 C464 51.48 464 102.96 464 156 C367.97 156 271.94 156 173 156 C173 197.91 173 239.82 173 283 C251.87 283 330.74 283 412 283 C412 334.15 412 385.3 412 438 C333.13 438 254.26 438 173 438 C173 479.91 173 521.82 173 565 C269.03 565 365.06 565 464 565 C464 616.48 464 667.96 464 721 C310.88 721 157.76 721 0 721 C0 483.07 0 245.14 0 0 Z " fill="#22371A" transform="translate(981,56)"/>
<path d="M0 0 C4.0910876 3.33014531 7.26456333 7.31247104 10.51953125 11.44140625 C13.08914159 14.69181804 15.74774904 17.84928218 18.4375 21 C22.55972631 25.84854706 26.60743875 30.75163904 30.625 35.6875 C33.19896392 38.81799666 35.81319086 41.91172461 38.4375 45 C42.55851634 49.84959381 46.60741354 54.75160806 50.625 59.6875 C53.19896392 62.81799666 55.81319086 65.91172461 58.4375 69 C62.55851634 73.84959381 66.60741354 78.75160806 70.625 83.6875 C73.19896392 86.81799666 75.81319086 89.91172461 78.4375 93 C82.55851634 97.84959381 86.60741354 102.75160806 90.625 107.6875 C93.19896392 110.81799666 95.81319086 113.91172461 98.4375 117 C102.55851634 121.84959381 106.60741354 126.75160806 110.625 131.6875 C113.19896392 134.81799666 115.81319086 137.91172461 118.4375 141 C122.55851634 145.84959381 126.60741354 150.75160806 130.625 155.6875 C133.19896392 158.81799666 135.81319086 161.91172461 138.4375 165 C142.55851634 169.84959381 146.60741354 174.75160806 150.625 179.6875 C153.19896392 182.81799666 155.81319086 185.91172461 158.4375 189 C162.55851634 193.84959381 166.60741354 198.75160806 170.625 203.6875 C173.19896392 206.81799666 175.81319086 209.91172461 178.4375 213 C182.55614958 217.84680862 186.60350799 222.74530731 190.6171875 227.6796875 C193.23178827 230.85770392 195.89393366 233.99233517 198.5625 237.125 C202.18203778 241.37746242 205.6758749 245.69892989 209.0703125 250.1328125 C211.87291054 253.68589704 214.81594427 257.11817371 217.75 260.5625 C220.68511876 264.01086357 223.57981918 267.48679384 226.4375 271 C229.72573483 275.03983137 233.06471426 279.03092065 236.4375 283 C240.55851634 287.84959381 244.60741354 292.75160806 248.625 297.6875 C251.6618277 301.3809391 254.75710955 305.02298486 257.85375977 308.66625977 C260.7329532 312.05954109 263.56954237 315.48267786 266.375 318.9375 C269.83024151 323.18392382 273.36447834 327.35296294 276.9375 331.5 C281.25678956 336.51319488 285.48847119 341.5853732 289.66015625 346.72265625 C292.21954054 349.84396367 294.82343791 352.9245003 297.4375 356 C301.55857792 360.84954051 305.60741483 365.75160964 309.625 370.6875 C312.19896822 373.81800189 314.81341194 376.91153171 317.4375 380 C322.34069751 385.77768007 327.17919571 391.60193438 331.9375 397.5 C332.62706787 398.34594727 332.62706787 398.34594727 333.33056641 399.20898438 C342.64635191 410.65647902 349.55953692 420.24515382 348.9375 435.75 C347.77726326 445.25029142 343.68693972 457.39270346 335.9375 463.5 C330.50622609 466.89980905 325.48869499 468.62322159 319.06753534 468.62880117 C318.08090728 468.63207336 317.09427922 468.63534555 316.07775334 468.63871691 C314.45217348 468.63649147 314.45217348 468.63649147 312.79375362 468.63422108 C311.0595025 468.63774942 311.0595025 468.63774942 309.290216 468.64134905 C306.06621136 468.6468787 302.84224068 468.6479101 299.61823252 468.64707164 C296.11624688 468.647241 292.6142702 468.65314556 289.11228901 468.6583125 C282.15980676 468.66764602 275.20733087 468.67156181 268.25484314 468.67383147 C259.9297989 468.67679158 251.60476313 468.68548787 243.27972334 468.69424575 C223.15615558 468.71509894 203.03258635 468.72556129 182.90901031 468.73437535 C173.39101156 468.73858059 163.87301344 468.74380274 154.35501523 468.74905988 C121.78045542 468.76695077 89.20589543 468.78194729 56.63133144 468.78938007 C54.58593909 468.78985483 52.54054674 468.79033072 50.49515438 468.79080774 C48.97364278 468.7911623 48.97364278 468.7911623 47.42139356 468.79152403 C42.28214974 468.79272524 37.14290593 468.79394068 32.00366211 468.79516602 C30.9837596 468.79540617 29.96385709 468.79564632 28.91304845 468.79589374 C-4.1585866 468.80378761 -37.2301858 468.82722088 -70.30180519 468.85972196 C-105.25842694 468.89401286 -140.21502771 468.91373053 -175.17166656 468.91702431 C-179.00848163 468.91744186 -182.84529669 468.91792142 -186.68211174 468.91844749 C-187.62685901 468.91857069 -188.57160629 468.91869388 -189.54498227 468.9188208 C-204.75467884 468.92115374 -219.9643338 468.93681895 -235.17401554 468.95728934 C-250.46008167 468.97753625 -265.74609777 468.98303001 -281.03217483 468.97351871 C-290.11482454 468.96829934 -299.1973078 468.97420177 -308.27993358 468.99605338 C-314.34806665 469.00954984 -320.41608501 469.00849469 -326.4842192 468.99565142 C-329.94106167 468.98874707 -333.39758568 468.98811112 -336.85439987 469.00521151 C-340.58250791 469.02027485 -344.30977844 469.01069482 -348.03786564 468.99498463 C-349.10519738 469.00520683 -350.17252912 469.01542904 -351.27220425 469.02596101 C-361.88213246 468.92827366 -370.45468054 466.04679523 -378.125 458.63671875 C-386.2632843 449.66163505 -388.68611593 440.20890495 -388.41015625 428.22265625 C-387.55900385 419.10863106 -383.90925304 412.3493987 -378.0625 405.5 C-377.23234375 404.51128906 -376.4021875 403.52257812 -375.546875 402.50390625 C-373.6579959 400.2597931 -371.75944261 398.02428348 -369.85546875 395.79296875 C-367.38612807 392.8925669 -364.96575889 389.95553382 -362.5625 387 C-358.81397354 382.3946675 -354.99165754 377.85795556 -351.14624023 373.33374023 C-348.2670468 369.94045891 -345.43045763 366.51732214 -342.625 363.0625 C-339.16975373 358.81607033 -335.63538048 354.64716345 -332.0625 350.5 C-327.81483876 345.56684679 -323.63803862 340.58680384 -319.53125 335.53515625 C-311.74225042 325.95912354 -303.89192579 316.43494734 -295.89501953 307.03173828 C-292.33221596 302.83671818 -288.84924425 298.58085722 -285.375 294.3125 C-282.33882634 290.61985636 -279.2440003 286.97878212 -276.1484375 283.3359375 C-273.25005177 279.9194046 -270.390949 276.47495162 -267.5625 273 C-263.81462202 268.3954642 -259.99266556 263.85980809 -256.1484375 259.3359375 C-253.25005177 255.9194046 -250.390949 252.47495162 -247.5625 249 C-243.81462202 244.3954642 -239.99266556 239.85980809 -236.1484375 235.3359375 C-233.25005177 231.9194046 -230.390949 228.47495162 -227.5625 225 C-223.81462202 220.3954642 -219.99266556 215.85980809 -216.1484375 211.3359375 C-213.25005177 207.9194046 -210.390949 204.47495162 -207.5625 201 C-203.81462202 196.3954642 -199.99266556 191.85980809 -196.1484375 187.3359375 C-193.25005177 183.9194046 -190.390949 180.47495162 -187.5625 177 C-183.81462202 172.3954642 -179.99266556 167.85980809 -176.1484375 163.3359375 C-173.25005177 159.9194046 -170.390949 156.47495162 -167.5625 153 C-163.81462202 148.3954642 -159.99266556 143.85980809 -156.1484375 139.3359375 C-153.25005177 135.9194046 -150.390949 132.47495162 -147.5625 129 C-143.81462202 124.3954642 -139.99266556 119.85980809 -136.1484375 115.3359375 C-133.25005177 111.9194046 -130.390949 108.47495162 -127.5625 105 C-123.81462202 100.3954642 -119.99266556 95.85980809 -116.1484375 91.3359375 C-113.25005177 87.9194046 -110.390949 84.47495162 -107.5625 81 C-103.81462202 76.3954642 -99.99266556 71.85980809 -96.1484375 67.3359375 C-93.25005177 63.9194046 -90.390949 60.47495162 -87.5625 57 C-83.81462202 52.3954642 -79.99266556 47.85980809 -76.1484375 43.3359375 C-73.25005177 39.9194046 -70.390949 36.47495162 -67.5625 33 C-63.81780738 28.39937764 -60.0076518 23.85973504 -56.15283203 19.35131836 C-53.14818398 15.82661485 -50.28396851 12.21728623 -47.4375 8.5625 C-35.87247375 -5.52468623 -15.76846282 -10.82517487 0 0 Z " fill="#22371A" transform="translate(3022.0625,38.5)"/>
<path d="M0 0 C1.1497983 -0.00175304 2.29959661 -0.00350607 3.48423728 -0.00531223 C6.67638819 -0.0091631 9.86850214 -0.00854339 13.06065323 -0.00603446 C16.53330505 -0.00439991 20.0059508 -0.00854345 23.47860068 -0.01194364 C29.56520451 -0.01709662 35.65180039 -0.01851501 41.73840618 -0.01748753 C50.78950416 -0.01596332 59.84059334 -0.02012273 68.89168961 -0.02536215 C85.99700818 -0.03503718 103.10232376 -0.03784645 120.20764474 -0.03841921 C133.41582273 -0.03887859 146.62399955 -0.04093609 159.83217716 -0.04411983 C163.63287836 -0.04501736 167.43357956 -0.04590718 171.23428077 -0.04679471 C172.17911995 -0.04701576 173.12395914 -0.04723681 174.09742982 -0.04746456 C200.67678223 -0.05361942 227.25613422 -0.05756505 253.83548737 -0.05712128 C255.33888481 -0.05709791 255.33888481 -0.05709791 256.87265391 -0.05707407 C261.95265891 -0.05699096 267.03266391 -0.05689192 272.11266891 -0.05678936 C273.12159365 -0.05676942 274.13051839 -0.05674947 275.17001661 -0.05672892 C277.21030828 -0.05668848 279.25059995 -0.05664669 281.29089162 -0.05660353 C313.03903114 -0.05599069 344.78715998 -0.0634987 376.53529644 -0.07717609 C412.19602707 -0.0925327 447.85675069 -0.10114258 483.51748484 -0.10021287 C487.31912911 -0.10013824 491.12077337 -0.10008953 494.92241764 -0.10005856 C495.85849393 -0.1000469 496.79457023 -0.10003525 497.75901247 -0.10002324 C512.83018171 -0.09999245 527.90134169 -0.10638133 542.97250817 -0.11499082 C558.11591565 -0.12346274 573.25930957 -0.12446085 588.4027181 -0.1178815 C597.40111734 -0.11418285 606.39947538 -0.1160276 615.39787026 -0.12582384 C621.40846635 -0.13181496 627.41903255 -0.13053805 633.42962726 -0.12335334 C636.85430309 -0.11946452 640.27889912 -0.11871723 643.70356939 -0.12681069 C647.39529271 -0.13384867 651.08680268 -0.12859423 654.77851868 -0.12025452 C655.83799382 -0.1252227 656.89746896 -0.13019088 657.9890494 -0.13530961 C669.74510497 -0.07903881 679.35467933 1.78883453 688.39833355 9.7262907 C697.8439725 19.76524868 697.72790709 32.68063624 697.72328472 45.61618328 C697.72628056 46.98028435 697.72968406 48.34438457 697.73346233 49.7084837 C697.74226348 53.39871014 697.74463881 57.08891337 697.74527812 60.77914929 C697.74599085 63.08905892 697.74812938 65.39896272 697.75077534 67.70887089 C697.76001601 75.77986683 697.76411184 83.85084629 697.76332378 91.92184734 C697.76272338 99.42502829 697.77327108 106.92813725 697.78906745 114.43129998 C697.80217684 120.89014611 697.80750625 127.34896881 697.80686837 133.80782813 C697.80661438 137.65786505 697.80941086 141.50783795 697.82004642 145.35786152 C697.8297848 148.98175071 697.82976761 152.60551543 697.82252979 156.22940922 C697.82099914 158.17881536 697.82929049 160.12822164 697.83796978 162.07760906 C697.79568187 173.99036294 696.4650987 185.34865538 688.33583355 194.6794157 C682.4736344 199.51247322 674.42538574 203.25085522 666.80660677 203.25743562 C665.81649233 203.26070781 664.82637789 203.26398001 663.80625999 203.26735136 C662.71349569 203.26586774 661.62073139 203.26438411 660.49485302 203.26285553 C658.75220242 203.26638388 658.75220242 203.26638388 656.97434676 203.2699835 C653.72997542 203.27551948 650.48563778 203.27654383 647.24126294 203.27570609 C643.71893772 203.27587527 640.19662145 203.28177783 636.67430067 203.28694695 C629.67926159 203.29628607 622.68422884 203.30019721 615.68918431 203.30246592 C607.31401031 203.30542461 598.93884473 203.31412008 590.56367514 203.3228802 C570.31756971 203.34373989 550.0714628 203.354197 529.82534912 203.36300981 C520.24978411 203.36721435 510.67421974 203.37243662 501.09865526 203.37769434 C468.32889768 203.39558632 435.55913991 203.41058271 402.78937817 203.41801453 C400.73145494 203.41848929 398.67353171 203.41896517 396.61560848 203.41944219 C395.08476854 203.41979675 395.08476854 203.41979675 393.52300254 203.42015848 C388.35221444 203.4213597 383.18142634 203.42257514 378.01063824 203.42380047 C376.47139109 203.42416069 376.47139109 203.42416069 374.90104804 203.4245282 C341.62872281 203.4324215 308.35643321 203.45585306 275.08412354 203.48835641 C239.91796662 203.52264719 204.75183056 203.542365 169.58565664 203.54565877 C165.72579637 203.54607631 161.86593612 203.54655588 158.00607586 203.54708195 C157.05564948 203.54720514 156.10522311 203.54732833 155.12599593 203.54745526 C139.82419103 203.54978829 124.5224275 203.56545414 109.22063734 203.58592379 C93.84147202 203.60617065 78.46235643 203.61166451 63.08318025 203.60215316 C53.94499143 203.59693365 44.80696804 203.60283686 35.668803 203.62468783 C29.56361363 203.63818382 23.45853829 203.63712956 17.35334782 203.62428587 C13.87532342 203.61738118 10.39761555 203.61674676 6.91961926 203.63384596 C3.1687678 203.64890806 -0.58125108 203.63933011 -4.33208179 203.62361908 C-5.40611677 203.63384129 -6.48015174 203.64406349 -7.58673322 203.65459546 C-18.20339286 203.55742577 -26.85624291 200.68532635 -34.54697895 193.26925945 C-42.65579157 184.01169838 -42.72020025 172.59034026 -42.69663715 160.88498211 C-42.70099052 159.45176714 -42.70617574 158.0185545 -42.71212482 156.58534527 C-42.72545931 152.71127771 -42.72609968 148.83730804 -42.72356153 144.96322203 C-42.72248798 141.72040193 -42.727385 138.47760133 -42.73216695 135.23478544 C-42.74324306 127.57959513 -42.74371031 119.92445389 -42.73765278 112.26925945 C-42.73161478 104.39168145 -42.74392388 96.51428213 -42.76522285 88.6367346 C-42.78287933 81.85514526 -42.78883382 75.07361259 -42.78558511 68.29200113 C-42.78377845 64.24968913 -42.78634628 60.20750461 -42.80029964 56.16521358 C-42.8129394 52.36150752 -42.81087634 48.55807856 -42.79788876 44.75437641 C-42.79553669 43.36531954 -42.79820807 41.97624279 -42.80651188 40.58720875 C-42.8745879 28.30589299 -41.50216786 18.84884325 -33.04697895 9.50363445 C-23.08345434 0.48901695 -12.77730148 -0.02462397 0 0 Z " fill="#22371A" transform="translate(2676.4219789505005,571.8713655471802)"/>
<path d="M0 0 C57.09 0 114.18 0 173 0 C173 237.93 173 475.86 173 721 C115.91 721 58.82 721 0 721 C0 483.07 0 245.14 0 0 Z " fill="#22371A" transform="translate(2315,56)"/>
<path d="M0 0 C3.76381862 1.50721148 5.58463482 3.64916931 8.0625 6.8125 C8.84753906 7.79863281 9.63257812 8.78476563 10.44140625 9.80078125 C10.85664551 10.32365723 11.27188477 10.8465332 11.69970703 11.38525391 C13.9137701 14.13474943 16.20930438 16.81432929 18.5 19.5 C21.85520179 23.44586555 25.17223747 27.41644433 28.4375 31.4375 C31.84475298 35.62823896 35.34101042 39.72919144 38.875 43.8125 C43.36279875 49.00482421 47.64708029 54.31884654 51.85058594 59.74267578 C55.6430227 64.60913717 59.62103908 69.29432649 63.65795898 73.95874023 C67.42617172 78.314875 71.08848562 82.74668518 74.71875 87.21875 C77.29842888 90.36383795 79.92631983 93.46479676 82.5625 96.5625 C86.43247486 101.11279319 90.19960089 105.72833078 93.91015625 110.41015625 C96.8328489 114.03210994 99.84934227 117.57129926 102.86547852 121.11547852 C105.76303423 124.5246909 108.61744791 127.96352278 111.4375 131.4375 C114.92870358 135.73099093 118.50914421 139.93686657 122.125 144.125 C125.94043704 148.5473037 129.6255155 153.02226972 133.16796875 157.66796875 C135.95290047 161.21296712 138.88808534 164.62913966 141.81054688 168.06054688 C145.51471406 172.41332337 149.14505911 176.82165014 152.75390625 181.25390625 C155.15110829 184.18474631 157.57273697 187.09401638 160 190 C163.16909541 193.79412502 166.31617294 197.60399849 169.4375 201.4375 C173.20948694 206.06101133 177.05190384 210.61968825 180.91601562 215.16601562 C183.79532794 218.55934744 186.63196982 221.98258851 189.4375 225.4375 C193.56187888 230.51250704 197.81213984 235.47189058 202.10327148 240.40600586 C205.89382474 244.78764949 205.89382474 244.78764949 207 247 C207.75796875 247.43183594 208.5159375 247.86367188 209.296875 248.30859375 C212.35721467 250.22351727 214.04022751 252.21844097 216.25 255.0625 C219.23163297 258.81916008 222.26186046 262.46182305 225.5 266 C228.52282421 269.31989486 231.42512161 272.69764112 234.25 276.1875 C237.87265701 280.66217564 241.59536891 285.03337488 245.375 289.375 C246.48308513 290.65103106 247.59115805 291.92707273 248.69921875 293.203125 C250.33834721 295.08993325 251.97867719 296.97560542 253.62353516 298.85742188 C255.15119825 300.60789862 256.67017879 302.36555847 258.1875 304.125 C258.64495605 304.64497559 259.10241211 305.16495117 259.57373047 305.70068359 C262.25828526 308.83113015 263.41124828 311.02812069 265 315 C90.76 315 -83.48 315 -263 315 C-261.2340101 311.46802019 -259.55909094 309.06472961 -257.0625 306.0625 C-256.25941406 305.09441406 -255.45632812 304.12632812 -254.62890625 303.12890625 C-251.46504426 299.35491344 -248.28266531 295.59652572 -245.0925293 291.84472656 C-242.14152786 288.36932036 -239.24400804 284.85627474 -236.375 281.3125 C-233.55230372 277.83918224 -230.65252188 274.48341921 -227.625 271.1875 C-224.04579392 267.26533863 -220.74697121 263.19541083 -217.5 259 C-213.582375 253.93803756 -209.50100882 249.12665119 -205.16796875 244.41015625 C-202.1335134 241.03671669 -199.30311771 237.51065853 -196.44921875 233.984375 C-193.681893 230.61238637 -190.8485306 227.30334554 -188 224 C-184.44532786 219.87544389 -180.9320737 215.72791688 -177.5 211.5 C-173.5662143 206.65403211 -169.51552241 201.91901472 -165.44140625 197.19140625 C-162.41041716 193.66682097 -159.43007419 190.10951168 -156.5 186.5 C-152.11287098 181.09923828 -147.58776588 175.825323 -143.05078125 170.55078125 C-136.80572679 163.28968997 -130.6036885 155.99446571 -124.5625 148.5625 C-120.60491812 143.69870975 -116.53457554 138.94118769 -112.44165039 134.19165039 C-109.41054711 130.66701081 -106.43014684 127.10960118 -103.5 123.5 C-99.5662143 118.65403211 -95.51552241 113.91901472 -91.44140625 109.19140625 C-88.41041716 105.66682097 -85.43007419 102.10951168 -82.5 98.5 C-78.11287098 93.09923828 -73.58776588 87.825323 -69.05078125 82.55078125 C-62.80572679 75.28968997 -56.6036885 67.99446571 -50.5625 60.5625 C-46.60491812 55.69870975 -42.53457554 50.94118769 -38.44165039 46.19165039 C-35.41054711 42.66701081 -32.43014684 39.10960118 -29.5 35.5 C-26.0679185 31.27207351 -22.55445542 27.12475151 -19 23 C-12.50551059 15.46116541 -6.20948501 7.77571673 0 0 Z " fill="#89C43F" transform="translate(3003,124)"/>
<path d="M0 0 C199.32 0 398.64 0 604 0 C604 22.11 604 44.22 604 67 C404.68 67 205.36 67 0 67 C0 44.89 0 22.78 0 0 Z " fill="#769352" transform="translate(2702,640)"/>
<path d="M0 0 C0.391875 0.433125 0.78375 0.86625 1.1875 1.3125 C2.9649118 3.10551752 2.9649118 3.10551752 5.34765625 4.2890625 C8.34910807 6.22519784 10.06273853 8.24741347 12.25 11.0625 C15.23163297 14.81916008 18.26186046 18.46182305 21.5 22 C24.52282421 25.31989486 27.42512161 28.69764112 30.25 32.1875 C33.87265701 36.66217564 37.59536891 41.03337488 41.375 45.375 C42.48308513 46.65103106 43.59115805 47.92707273 44.69921875 49.203125 C46.33834721 51.08993325 47.97867719 52.97560542 49.62353516 54.85742188 C51.15119825 56.60789862 52.67017879 58.36555847 54.1875 60.125 C54.64495605 60.64497559 55.10241211 61.16495117 55.57373047 61.70068359 C58.25828526 64.83113015 59.41124828 67.02812069 61 71 C-113.24 71 -287.48 71 -467 71 C-465.2340101 67.46802019 -463.55909094 65.06472961 -461.0625 62.0625 C-460.25941406 61.09441406 -459.45632812 60.12632812 -458.62890625 59.12890625 C-455.46504426 55.35491344 -452.28266531 51.59652572 -449.0925293 47.84472656 C-446.14152786 44.36932036 -443.24400804 40.85627474 -440.375 37.3125 C-437.55230372 33.83918224 -434.65252188 30.48341921 -431.625 27.1875 C-426.98976792 22.10500868 -422.78362478 16.73372888 -418.578125 11.296875 C-416.12593806 8.13336666 -413.57871388 5.06106324 -411 2 C-410.505 2.99 -410.505 2.99 -410 4 C-274.37 4 -138.74 4 1 4 C0.67 2.68 0.34 1.36 0 0 Z " fill="#759153" transform="translate(3207,368)"/>
<path d="M0 0 C198.66 0 397.32 0 602 0 C602 10.56 602 21.12 602 32 C403.34 32 204.68 32 0 32 C0 21.44 0 10.88 0 0 Z " fill="#8AC540" transform="translate(2703,641)"/>
<path d="M0 0 C57.09 0 114.18 0 173 0 C173 1.98 173 3.96 173 6 C172.67 6 172.34 6 172 6 C172 4.35 172 2.7 172 1 C149.88653201 1.10715155 127.77309888 1.21989711 105.65969372 1.33933926 C95.39252556 1.39466473 85.12535393 1.44814564 74.8581543 1.49731445 C65.91137051 1.54016455 56.96461224 1.58644465 48.01786786 1.63687855 C43.27875241 1.66347281 38.539642 1.68832575 33.80049706 1.70907402 C29.34282356 1.72864411 24.88519859 1.75278906 20.42756844 1.78049088 C18.78886674 1.78985933 17.15015438 1.79753535 15.51143646 1.80341911 C13.27911118 1.81168378 11.0469036 1.82596147 8.81462097 1.84178162 C7.56374789 1.84823417 6.31287481 1.85468672 5.02409649 1.8613348 C1.95216096 1.86459017 1.95216096 1.86459017 -1 3 C-0.67 2.01 -0.34 1.02 0 0 Z " fill="#192913" transform="translate(622,56)"/>
</svg>
